<?xml version="1.0" encoding="UTF-8"?>
<svg id="Layer_2" data-name="Layer 2" xmlns="http://www.w3.org/2000/svg" viewBox="0 0 400 107.98">
  <defs>
    <style>
      .cls-1 {
        fill: #37b13b;
      }
    </style>
  </defs>
  <g id="Layer_1-2" data-name="Layer 1">
    <g>
      <g>
        <rect class="cls-1" x="64.56" y="36.32" width="7.91" height="7.85"/>
        <path class="cls-1" d="m82.68,27.18h-7.85v36.62h0c0,4.34,3.52,7.85,7.85,7.85h40.94v-7.85h-39.87c-.59,0-1.07-.48-1.07-1.07v-18.58h40.94v-7.84h-40.94v-9.13Z"/>
        <path class="cls-1" d="m314.27,36.32h-43.45c-4.34,0-7.85,3.52-7.85,7.85h0v19.64h0c0,4.34,3.52,7.85,7.85,7.85h48.78v-7.85h-11.42l1.86-1.57,7.28-6.11c1.45-1.21,2.28-3.02,2.28-4.9v-9.59c0-2.94-2.39-5.33-5.33-5.33Zm-2.51,14.25l-15.78,13.25h-24.08c-.59,0-1.07-.48-1.07-1.07v-17.52c0-.59.48-1.07,1.07-1.07h38.81c.59,0,1.07.48,1.07,1.07v5.34Z"/>
        <path class="cls-1" d="m376.31,36.32h-40.94c-4.34,0-7.85,3.52-7.85,7.85h0v27.49h7.85v-26.43c0-.59.48-1.07,1.07-1.07h38.81c.59,0,1.07.48,1.07,1.07v26.43h7.85v-27.49h0c0-4.35-3.52-7.85-7.85-7.85Z"/>
        <path class="cls-1" d="m247.34,36.32h-31.2v7.85h29.52c.59,0,1.07.48,1.07,1.07v17.51c0,.59-.48,1.07-1.07,1.07h-39.87v-27.49h-8.46v27.49h-7.92v-27.49h-8.46v27.49h-39.87c-.59,0-1.07-.48-1.07-1.07v-26.43h-8.47v27.49h0c0,4.34,3.52,7.85,7.85,7.85h41.56v20.49h8.46v-20.5h7.92v20.49h8.46v-20.49h41.55c4.34,0,7.85-3.52,7.85-7.85h0v-19.64h0c.01-4.34-3.5-7.84-7.84-7.84.01,0,0,0,0,0Z"/>
      </g>
      <path class="cls-1" d="m392.15,0H7.85C3.52,0,0,3.52,0,7.85v28.46h0v7.85h47.73c.59,0,1.07.48,1.07,1.07v17.51c0,.59-.48,1.07-1.07,1.07H0v7.85h0v28.46c0,4.34,3.52,7.85,7.85,7.85h384.29c4.34,0,7.85-3.52,7.85-7.85V7.85c0-4.34-3.52-7.85-7.85-7.85Zm-.06,98.99c0,.59-.48,1.07-1.07,1.07H8.98c-.59,0-1.07-.48-1.07-1.07v-27.33h40.88c4.34,0,7.85-3.52,7.85-7.85v-19.64c0-4.34-3.52-7.85-7.85-7.85H7.92V8.98c0-.59.48-1.07,1.07-1.07h382.03c.59,0,1.07.48,1.07,1.07v90.01Z"/>
    </g>
  </g>
</svg>