<?xml version="1.0" encoding="UTF-8"?>
<svg id="Layer_2" data-name="Layer 2" xmlns="http://www.w3.org/2000/svg" viewBox="0 0 114.58 196.97">
  <g id="Layer_1-2" data-name="Layer 1">
    <path d="m25.29,45.97l27.91-16.61v137.42L1.85,196.82c-.98.57-2.01-.68-1.25-1.53l23.43-26.36c.81-.92,1.26-2.1,1.26-3.32V45.97ZM.2,41.96L29.57,2.04c.94-1.28,2.44-2.04,4.03-2.04h57.25c.88,0,1.75.23,2.51.68l18.74,10.88c1.54.89,2.49,2.54,2.49,4.32v145.32c0,1.81-.98,3.48-2.56,4.36l-29.73,16.61c-1.61.9-3.57.84-5.12-.15l-23.96-15.25,30.68-17.34c1.57-.89,2.54-2.55,2.54-4.35V33.4c0-2.76-2.24-5-5-5H25.83c-.98,0-1.93.29-2.75.82L1.56,43.39c-.93.61-2.02-.53-1.36-1.43Z"/>
  </g>
</svg>