<?xml version="1.0" encoding="UTF-8"?>
<svg id="Layer_2" data-name="Layer 2" xmlns="http://www.w3.org/2000/svg" viewBox="0 0 148.34 194.01">
  <g id="Layer_1-2" data-name="Layer 1">
    <path d="m80.75,117.69h-18.27c-2.39,0-4.45,1.69-4.91,4.04l-7.77,39.6c-.26,1.34-1.07,2.52-2.22,3.26L1.55,193.84c-.95.61-2.02-.59-1.32-1.47l22.42-28.02c.48-.6.82-1.31.98-2.06L53.85,23.24c.3-1.39,1.18-2.59,2.42-3.29L90.36.65c3.05-1.73,6.89.14,7.41,3.62l20.94,141c.36,2.45,2.47,4.27,4.95,4.27h23.68c1,0,1.38,1.3.54,1.84l-46.04,29.64c-3.05,1.96-7.1.13-7.65-3.45l-8.5-55.63c-.37-2.44-2.47-4.24-4.94-4.24Zm.42-29.38l-6.12-48.02c-.14-1.12-1.75-1.18-1.97-.07l-9.74,47.95c-.25,1.24.7,2.4,1.96,2.4h13.89c1.2,0,2.14-1.06,1.98-2.25Z"/>
  </g>
</svg>