<?xml version="1.0" encoding="UTF-8"?>
<svg id="Layer_2" data-name="Layer 2" xmlns="http://www.w3.org/2000/svg" viewBox="0 0 151.34 197.01">
  <g id="Layer_1-2" data-name="Layer 1">
    <path d="m94.32,4.5c.86,0,1.82.59,1.99,1.71l20.94,141c.58,3.89,3.98,6.82,7.91,6.82h16.88l-40.32,25.96c-.33.21-.69.32-1.07.32-.86,0-1.82-.58-1.99-1.7l-8.5-55.63c-.6-3.94-3.93-6.79-7.91-6.79h-18.27c-3.81,0-7.12,2.72-7.85,6.46l-7.77,39.6c-.1.54-.43,1.01-.89,1.3l-35.89,22.81,14.91-18.64c.77-.96,1.31-2.1,1.57-3.3L58.28,25.38c.12-.56.47-1.04.97-1.32L93.34,4.76c.31-.18.64-.26.98-.26m-27.53,90.56h13.89c1.44,0,2.8-.62,3.75-1.7.95-1.08,1.39-2.51,1.21-3.94l-6.12-48.02c-.26-2.02-1.93-3.49-3.97-3.49-1.92,0-3.53,1.32-3.92,3.2l-9.74,47.95c-.3,1.48.07,2.99,1.03,4.16.95,1.17,2.36,1.84,3.87,1.84M94.32,1.5c-.82,0-1.67.21-2.46.65l-34.09,19.3c-1.24.7-2.12,1.9-2.42,3.29l-30.22,139.05c-.16.75-.5,1.46-.98,2.06L1.73,193.87c-.57.71.02,1.63.78,1.63.18,0,.36-.05.54-.17l46.03-29.26c1.16-.74,1.96-1.91,2.22-3.26l7.77-39.6c.46-2.35,2.52-4.04,4.91-4.04h18.27c2.47,0,4.57,1.8,4.94,4.24l8.5,55.63c.39,2.58,2.61,4.25,4.95,4.25.91,0,1.84-.25,2.69-.8l46.04-29.64c.84-.54.46-1.84-.54-1.84h-23.68c-2.48,0-4.58-1.81-4.95-4.27L99.27,5.77c-.38-2.57-2.59-4.27-4.95-4.27h0Zm-27.53,90.56c-1.26,0-2.21-1.16-1.96-2.4l9.74-47.95c.11-.54.54-.8.98-.8.46,0,.92.3.99.87l6.12,48.02c.15,1.2-.78,2.25-1.98,2.25h-13.89Z"/>
  </g>
</svg>