<?xml version="1.0" encoding="UTF-8"?>
<svg id="Layer_2" data-name="Layer 2" xmlns="http://www.w3.org/2000/svg" viewBox="0 0 282.16 201.44">
  <g id="Layer_1-2" data-name="Layer 1">
    <g>
      <path d="m147.14,4.5c.35,0,.69.09.99.26l20.16,11.43c1.2.68,2.57,1.04,3.95,1.04h22.2l-33.31,19.37c-.3.18-.65.27-1.01.27-.3,0-.59-.07-.86-.19l-31.81-15.14c-.54-.26-1.12-.39-1.72-.39-1.04,0-2.03.4-2.78,1.13-.79.76-1.22,1.78-1.22,2.88v62c0,4.42,3.59,8.01,8.01,8.01,1.39,0,2.77-.37,3.99-1.08l30.06-17.34c.3-.18.65-.27,1-.27s.69.09.99.26l14.4,8.2c.62.35,1.01,1.02,1.01,1.74v81.22c0,.7-.38,1.36-.98,1.72l-45.67,27.05c-.31.18-.66.28-1.02.28s-.69-.09-.99-.26l-20.17-11.43c-1.2-.68-2.57-1.04-3.95-1.04h-21.89l33.25-19.23c.3-.18.65-.27,1-.27s.71.1,1.01.28l31.11,18.28c.62.36,1.32.55,2.02.55,2.21,0,4-1.8,4-4v-60.71c0-4.42-3.59-8.01-8.01-8.01-1.36,0-2.71.36-3.92,1.04l-17.57,9.88c-.3.17-.64.26-.98.26s-.7-.09-1.01-.27l-26.99-15.78c-.61-.36-.99-1.02-.99-1.73V33.55c0-.7.38-1.36.98-1.72l45.67-27.05c.31-.18.66-.28,1.02-.28m0-3c-.88,0-1.76.23-2.55.7l-45.67,27.05c-1.52.9-2.45,2.54-2.45,4.3v70.93c0,1.78.94,3.42,2.48,4.32l26.99,15.78c.78.46,1.65.68,2.52.68s1.69-.21,2.45-.64l17.57-9.88c.79-.45,1.63-.65,2.45-.65,2.61,0,5.01,2.09,5.01,5.01v60.71c0,.58-.48,1-1,1-.17,0-.34-.04-.5-.14l-31.11-18.28c-.78-.46-1.66-.69-2.53-.69s-1.73.22-2.5.67l-39.7,22.96c-.89.51-.52,1.87.5,1.87h29.35c.86,0,1.71.22,2.47.65l20.17,11.43c.77.43,1.62.65,2.47.65s1.76-.23,2.55-.7l45.67-27.05c1.52-.9,2.45-2.54,2.45-4.3v-81.22c0-1.8-.96-3.46-2.53-4.35l-14.4-8.2c-.77-.44-1.62-.65-2.47-.65s-1.73.22-2.5.67l-30.06,17.34c-.81.46-1.66.68-2.49.68-2.61,0-5.01-2.09-5.01-5.01V25.15c0-.58.47-1,1-1,.14,0,.29.03.43.1l31.81,15.14c.68.32,1.42.49,2.15.49.87,0,1.74-.23,2.51-.68l39.73-23.1c.88-.51.52-1.86-.5-1.86h-29.62c-.86,0-1.71-.22-2.47-.65l-20.16-11.43c-.77-.43-1.62-.65-2.47-.65h0Z"/>
      <path d="m232.93,28.72c.22,0,.44.06.63.17l17.27,9.79c1.09.62,2.34.95,3.59.95h17.43l-27.16,15.79c-.2.11-.42.17-.65.17-.19,0-.38-.04-.55-.12l-27.25-12.97c-.52-.25-1.08-.38-1.66-.38-1,0-1.96.39-2.68,1.09-.76.73-1.18,1.72-1.18,2.77v53.12c0,4.02,3.27,7.29,7.29,7.29,1.26,0,2.52-.34,3.63-.98l25.75-14.85c.19-.11.42-.17.64-.17s.44.06.63.17l12.34,7.02c.4.23.65.66.65,1.12v69.58c0,.45-.24.87-.63,1.1l-17.88,10.59c.19-.46.3-.96.3-1.48v-52.01c0-4.02-3.27-7.29-7.29-7.29-1.24,0-2.47.33-3.57.94l-15.05,8.47c-.19.11-.41.16-.63.16s-.45-.06-.65-.18l-23.12-13.52c-.39-.23-.64-.65-.64-1.11v-60.77c0-.45.24-.87.63-1.1l39.12-23.17c.2-.12.42-.18.65-.18m-22.58,137.24c.23,0,.45.06.65.18l26.65,15.66c.47.28,1,.45,1.54.51l-17.28,10.23c-.2.12-.42.18-.65.18s-.44-.06-.63-.17l-17.28-9.8c-1.09-.62-2.34-.95-3.59-.95h-17.15l27.1-15.67c.2-.11.42-.17.64-.17m22.58-140.24c-.76,0-1.51.2-2.18.6l-39.12,23.17c-1.3.77-2.1,2.17-2.1,3.69v60.77c0,1.52.81,2.93,2.12,3.7l23.12,13.52c.67.39,1.41.59,2.16.59s1.45-.18,2.1-.55l15.05-8.47c.68-.38,1.4-.56,2.09-.56,2.24,0,4.29,1.79,4.29,4.29v52.01c0,.5-.41.86-.86.86-.14,0-.29-.04-.43-.12l-26.65-15.66c-.67-.39-1.42-.59-2.17-.59s-1.48.19-2.14.58l-34.01,19.67c-.76.44-.45,1.6.43,1.6h25.14c.74,0,1.47.19,2.11.56l17.28,9.8c.66.37,1.38.56,2.11.56s1.51-.2,2.18-.6l39.12-23.17c1.3-.77,2.1-2.17,2.1-3.69v-69.58c0-1.54-.83-2.96-2.16-3.72l-12.34-7.02c-.66-.37-1.39-.56-2.12-.56s-1.48.19-2.14.57l-25.75,14.85c-.69.4-1.42.58-2.13.58-2.24,0-4.29-1.79-4.29-4.29v-53.12c0-.5.41-.86.86-.86.12,0,.25.03.37.08l27.25,12.97c.58.28,1.21.42,1.84.42.75,0,1.49-.19,2.15-.58l34.03-19.79c.76-.44.44-1.6-.43-1.6h-25.38c-.74,0-1.47-.19-2.11-.56l-17.27-9.79c-.66-.37-1.38-.56-2.11-.56h0Z"/>
      <path d="m59.17,28.72c.22,0,.44.06.63.17l17.27,9.79c1.09.62,2.34.95,3.59.95h7.24v5.92l-16.98,9.87c-.2.11-.42.17-.65.17-.19,0-.38-.04-.55-.12l-27.25-12.97c-.52-.25-1.08-.38-1.66-.38-2.13,0-3.86,1.73-3.86,3.86v53.12c0,4.02,3.27,7.29,7.29,7.29,1.26,0,2.52-.34,3.63-.98l25.75-14.85c.19-.11.42-.17.64-.17s.44.06.63.17l12.34,7.02c.4.23.65.66.65,1.12v69.58c0,.45-.24.87-.63,1.1l-17.88,10.59c.19-.46.3-.96.3-1.48v-52.01c0-4.02-3.27-7.29-7.29-7.29-1.24,0-2.47.33-3.57.94l-15.05,8.47c-.19.11-.41.16-.63.16s-.45-.06-.65-.18l-23.12-13.52c-.39-.23-.64-.65-.64-1.11v-60.77c0-.45.24-.87.63-1.1l39.12-23.17c.2-.12.42-.18.65-.18m-22.58,137.24c.23,0,.45.06.65.18l26.65,15.66c.47.28,1,.45,1.54.51l-17.28,10.23c-.2.12-.42.18-.65.18s-.44-.06-.63-.17l-17.28-9.8c-1.09-.62-2.34-.95-3.59-.95H8.85l27.1-15.67c.2-.11.42-.17.64-.17M59.17,25.72c-.76,0-1.51.2-2.18.6l-39.12,23.17c-1.3.77-2.1,2.17-2.1,3.69v60.77c0,1.52.81,2.93,2.12,3.7l23.12,13.52c.67.39,1.41.59,2.16.59s1.45-.18,2.1-.55l15.05-8.47c.68-.38,1.4-.56,2.09-.56,2.24,0,4.29,1.79,4.29,4.29v52.01c0,.5-.41.86-.86.86-.14,0-.29-.04-.43-.12l-26.65-15.66c-.67-.39-1.42-.59-2.17-.59-.74,0-1.48.19-2.14.58L.43,183.21c-.76.44-.45,1.6.43,1.6h25.14c.74,0,1.47.19,2.11.56l17.28,9.8c.66.37,1.38.56,2.11.56s1.51-.2,2.18-.6l39.12-23.17c1.3-.77,2.1-2.17,2.1-3.69v-69.58c0-1.54-.83-2.96-2.16-3.72l-12.34-7.02c-.66-.37-1.39-.56-2.12-.56s-1.48.19-2.14.57l-25.75,14.85c-.69.4-1.42.58-2.13.58-2.24,0-4.29-1.79-4.29-4.29v-53.12c0-.5.41-.86.86-.86.12,0,.25.03.37.08l27.25,12.97c.58.28,1.21.42,1.84.42.75,0,1.49-.19,2.15-.58l17.47-10.16c.62-.36.99-1.02.99-1.73v-7.5c0-1.1-.9-2-2-2h-8.24c-.74,0-1.47-.19-2.11-.56l-17.27-9.79c-.66-.37-1.38-.56-2.11-.56h0Z"/>
    </g>
  </g>
</svg>