<?xml version="1.0" encoding="UTF-8"?>
<svg id="Layer_2" data-name="Layer 2" xmlns="http://www.w3.org/2000/svg" viewBox="0 0 141.81 200">
  <g id="Layer_1-2" data-name="Layer 1">
    <path d="m11.04,198.11l18.13-10.88V38.03H1.02c-.99,0-1.4-1.28-.58-1.85L51,.91c.85-.59,1.87-.91,2.91-.91h86.89c1,0,1.4,1.29.58,1.85l-41.22,28.37c-.85.58-1.85.9-2.88.9h-36.98v44.41h65.69c1.03,0,1.41,1.37.52,1.89l-47.99,28.26c-.78.46-1.67.7-2.58.7h-15.64v62.23h46.03c1.03,0,2.03-.31,2.88-.89l24.66-16.94c.93-.64,2.06.49,1.41,1.42l-33.48,47.79H11.56c-1.03,0-1.41-1.36-.52-1.89Z"/>
  </g>
</svg>