<?xml version="1.0" encoding="UTF-8"?>
<svg id="Layer_2" data-name="Layer 2" xmlns="http://www.w3.org/2000/svg" viewBox="0 0 112.74 196.16">
  <g id="Layer_1-2" data-name="Layer 1">
    <path d="m53.82,167.83L3.75,196.02c-.99.56-1.99-.7-1.23-1.54l22.55-25c.83-.92,1.29-2.11,1.29-3.35V44.77c0-2.76-2.24-5-5-5H1c-.97,0-1.37-1.23-.59-1.81L51.77.2c.66-.49,1.59-.01,1.59.81v27.72c0,.77.83,1.25,1.5.87l35.18-20.31c1.52-.88,3.38-.89,4.92-.05l15.2,8.39c1.59.88,2.58,2.56,2.58,4.38v52.29c0,1.83-1,3.52-2.61,4.39l-19.23,10.47c-.71.39-.69,1.41.03,1.77l19.07,9.63c1.68.85,2.75,2.58,2.75,4.46v57.86c0,1.77-.94,3.41-2.47,4.31l-26.63,15.66c-1.59.93-3.56.92-5.13-.04l-24.69-14.98Zm32.13-95.79v-23.77c0-3.86-4.2-6.27-7.53-4.31l-22.13,12.99c-1.53.9-2.47,2.54-2.47,4.31v32.29l29.64-17.18c1.54-.89,2.49-2.54,2.49-4.33Zm-7.55,38.11l-22.13,13.15c-1.52.9-2.45,2.53-2.45,4.3v39.99l29.62-16.95c1.56-.89,2.52-2.55,2.52-4.34v-31.85c0-3.88-4.22-6.28-7.55-4.3Z"/>
  </g>
</svg>