<?xml version="1.0" encoding="UTF-8"?>
<svg id="Layer_2" data-name="Layer 2" xmlns="http://www.w3.org/2000/svg" viewBox="0 0 127.79 201.44">
  <g id="Layer_1-2" data-name="Layer 1">
    <path d="m70.57,4.5c.35,0,.69.09.99.26l20.16,11.43c1.2.68,2.57,1.04,3.95,1.04h22.2l-33.31,19.37c-.3.18-.65.27-1.01.27-.3,0-.59-.07-.86-.19l-31.81-15.14c-.54-.26-1.12-.39-1.72-.39-1.04,0-2.03.4-2.78,1.13-.79.76-1.22,1.78-1.22,2.88v62c0,4.42,3.59,8.01,8.01,8.01,1.39,0,2.77-.37,3.99-1.08l30.06-17.34c.3-.18.65-.27,1-.27s.69.09.99.26l14.4,8.2c.62.35,1.01,1.02,1.01,1.74v81.22c0,.7-.38,1.36-.98,1.72l-45.67,27.05c-.31.18-.66.28-1.02.28s-.69-.09-.99-.26l-20.17-11.43c-1.2-.68-2.57-1.04-3.95-1.04H9.95l33.25-19.23c.3-.18.65-.27,1-.27s.71.1,1.01.28l31.11,18.28c.62.36,1.32.55,2.02.55,2.21,0,4-1.8,4-4v-60.71c0-4.42-3.59-8.01-8.01-8.01-1.36,0-2.71.36-3.92,1.04l-17.57,9.88c-.3.17-.64.26-.98.26s-.7-.09-1.01-.27l-26.99-15.78c-.61-.36-.99-1.02-.99-1.73V33.55c0-.7.38-1.36.98-1.72L69.55,4.78c.31-.18.66-.28,1.02-.28m0-3c-.88,0-1.76.23-2.55.7L22.35,29.25c-1.52.9-2.45,2.54-2.45,4.3v70.93c0,1.78.94,3.42,2.48,4.32l26.99,15.78c.78.46,1.65.68,2.52.68s1.69-.21,2.45-.64l17.57-9.88c.79-.45,1.63-.65,2.45-.65,2.61,0,5.01,2.09,5.01,5.01v60.71c0,.58-.48,1-1,1-.17,0-.34-.04-.5-.14l-31.11-18.28c-.78-.46-1.66-.69-2.53-.69s-1.73.22-2.5.67L2,185.34c-.89.51-.52,1.87.5,1.87h29.35c.86,0,1.71.22,2.47.65l20.17,11.43c.77.43,1.62.65,2.47.65s1.76-.23,2.55-.7l45.67-27.05c1.52-.9,2.45-2.54,2.45-4.3v-81.22c0-1.8-.96-3.46-2.53-4.35l-14.4-8.2c-.77-.44-1.62-.65-2.47-.65s-1.73.22-2.5.67l-30.06,17.34c-.81.46-1.66.68-2.49.68-2.61,0-5.01-2.09-5.01-5.01V25.15c0-.58.47-1,1-1,.14,0,.29.03.43.1l31.81,15.14c.68.32,1.42.49,2.15.49.87,0,1.74-.23,2.51-.68l39.73-23.1c.88-.51.52-1.86-.5-1.86h-29.62c-.86,0-1.71-.22-2.47-.65l-20.16-11.43c-.77-.43-1.62-.65-2.47-.65h0Z"/>
  </g>
</svg>