<?xml version="1.0" encoding="UTF-8"?>
<svg id="Layer_2" data-name="Layer 2" xmlns="http://www.w3.org/2000/svg" viewBox="0 0 131.49 200.98">
  <g id="Layer_1-2" data-name="Layer 1">
    <path d="m72.32,4.5c.35,0,.7.09,1.01.27l22.64,13.2c1.22.71,2.62,1.09,4.03,1.09h21.48l-32.86,18.83c-.3.17-.65.26-.99.26s-.67-.08-.96-.25l-10.7-5.85c-1.17-.64-2.5-.98-3.84-.98-1.37,0-2.73.36-3.92,1.03l-10.63,5.98c-2.51,1.42-4.08,4.09-4.08,6.97v110.65c0,2.82,1.51,5.47,3.95,6.9l10.55,6.2c1.23.72,2.63,1.1,4.05,1.1,1.23,0,2.45-.29,3.55-.83l38.73-19.19-42.07,45.95c-.38.41-.92.65-1.48.65-.33,0-.65-.08-.94-.24l-39.49-21.11c-.65-.35-1.06-1.02-1.06-1.76V48.11c0-4.41-3.59-8-8-8h-11.32L71.32,4.77c.3-.17.65-.27,1-.27m0-3c-.86,0-1.72.22-2.5.67L2,41.24c-.89.51-.52,1.87.5,1.87h18.79c2.76,0,5,2.24,5,5v125.26c0,1.84,1.02,3.54,2.64,4.41l39.49,21.11c.74.4,1.55.59,2.36.59,1.37,0,2.72-.56,3.69-1.62l49.3-53.84c.63-.69.06-1.68-.73-1.68-.15,0-.3.03-.46.11l-48.32,23.94c-.7.35-1.46.52-2.22.52-.88,0-1.75-.23-2.53-.69l-10.55-6.2c-1.53-.9-2.47-2.54-2.47-4.31V45.06c0-1.81.97-3.47,2.55-4.36l10.63-5.98c.76-.43,1.61-.64,2.45-.64.83,0,1.65.2,2.4.61l10.7,5.85c.75.41,1.57.61,2.4.61s1.72-.22,2.49-.66l39.38-22.57c.89-.51.53-1.87-.5-1.87h-28.99c-.88,0-1.75-.23-2.52-.68l-22.64-13.2c-.78-.45-1.65-.68-2.52-.68h0Z"/>
  </g>
</svg>