<?xml version="1.0" encoding="UTF-8"?>
<svg id="Layer_2" data-name="Layer 2" xmlns="http://www.w3.org/2000/svg" viewBox="0 0 141.81 200">
  <g id="Layer_1-2" data-name="Layer 1">
    <path d="m134.41,3l-35.96,24.75c-.35.24-.76.37-1.18.37h-39.98v50.41h61.41l-41.72,24.56c-.32.19-.68.29-1.06.29h-18.64v68.23h49.03c1.64,0,3.22-.49,4.57-1.42l15.61-10.72-26.29,37.53H18.72l11.99-7.19,1.46-.87V35.03H7.33L52.71,3.37c.35-.24.76-.37,1.19-.37h80.51m6.38-3H53.9c-1.04,0-2.05.32-2.91.91L.44,36.18c-.82.57-.41,1.85.58,1.85h28.15v149.2l-18.13,10.88c-.88.53-.51,1.89.52,1.89h90.21l33.48-47.79c.52-.74-.09-1.61-.83-1.61-.19,0-.39.06-.58.19l-24.66,16.94c-.85.58-1.85.89-2.88.89h-46.03v-62.23h15.64c.91,0,1.8-.24,2.58-.7l47.99-28.26c.89-.53.52-1.89-.52-1.89H60.28V31.12h36.98c1.03,0,2.03-.31,2.88-.9L141.37,1.85c.82-.57.42-1.85-.58-1.85h0Z"/>
  </g>
</svg>