<?xml version="1.0" encoding="UTF-8"?>
<svg id="Layer_2" data-name="Layer 2" xmlns="http://www.w3.org/2000/svg" viewBox="0 0 124.79 198.44">
  <g id="Layer_1-2" data-name="Layer 1">
    <path d="m70.41,113.24l-17.57,9.88c-1.55.87-3.44.86-4.98-.04l-26.99-15.78c-1.53-.9-2.48-2.54-2.48-4.32V32.05c0-1.77.93-3.4,2.45-4.3L66.52.7c1.54-.91,3.46-.93,5.01-.05l20.16,11.43c.75.43,1.6.65,2.47.65h29.62c1.02,0,1.39,1.35.5,1.86l-39.73,23.1c-1.43.83-3.17.9-4.66.19l-31.81-15.14c-.66-.32-1.43.17-1.43.9v62c0,3.85,4.16,6.25,7.5,4.33l30.06-17.34c1.54-.89,3.43-.89,4.97-.01l14.4,8.2c1.56.89,2.53,2.55,2.53,4.35v81.22c0,1.77-.93,3.4-2.45,4.3l-45.67,27.05c-1.54.91-3.45.93-5.01.05l-20.17-11.43c-.75-.43-1.6-.65-2.47-.65H1c-1.02,0-1.39-1.35-.5-1.87l39.7-22.96c1.56-.9,3.48-.9,5.04.02l31.11,18.28c.67.39,1.51-.09,1.51-.86v-60.71c0-3.82-4.12-6.23-7.45-4.36Z"/>
  </g>
</svg>