<?xml version="1.0" encoding="UTF-8"?>
<svg id="Layer_2" data-name="Layer 2" xmlns="http://www.w3.org/2000/svg" viewBox="0 0 128.49 197.98">
  <g id="Layer_1-2" data-name="Layer 1">
    <path d="m73.34.68l22.64,13.2c.76.45,1.63.68,2.52.68h28.99c1.02,0,1.39,1.36.5,1.87l-39.38,22.57c-1.51.86-3.36.88-4.89.05l-10.7-5.85c-1.51-.83-3.35-.82-4.85.03l-10.63,5.98c-1.57.89-2.55,2.55-2.55,4.36v110.65c0,1.77.94,3.41,2.47,4.31l10.55,6.2c1.45.85,3.24.92,4.75.17l48.32-23.94c.99-.49,1.93.75,1.18,1.57l-49.3,53.84c-1.54,1.68-4.03,2.11-6.05,1.03l-39.49-21.11c-1.63-.87-2.64-2.56-2.64-4.41V46.61c0-2.76-2.24-5-5-5H1c-1.02,0-1.39-1.36-.5-1.87L68.32.67c1.55-.89,3.47-.89,5.01.01Z"/>
  </g>
</svg>