<?xml version="1.0" encoding="UTF-8"?>
<svg id="Layer_2" data-name="Layer 2" xmlns="http://www.w3.org/2000/svg" viewBox="0 0 117.58 199.97">
  <g id="Layer_1-2" data-name="Layer 1">
    <path d="m92.35,4.5c.35,0,.7.09,1,.27l18.74,10.88c.61.36,1,1.02,1,1.73v145.32c0,.72-.39,1.39-1.02,1.75l-29.73,16.61c-.3.17-.63.25-.98.25-.38,0-.75-.11-1.07-.31l-19.74-12.57,26.33-14.88c2.51-1.42,4.06-4.09,4.06-6.96V34.9c0-4.41-3.59-8-8-8H27.33c-1.57,0-3.09.46-4.4,1.32l-12.2,8.02L33.49,5.31c.38-.51.98-.81,1.61-.81h57.25m-40.64,31.64v130.42l-39,22.81,15.06-16.95c1.3-1.47,2.02-3.35,2.02-5.31V49.18l21.91-13.04M92.35,1.5h-57.25c-1.59,0-3.09.76-4.03,2.04L1.7,43.46c-.53.72.06,1.6.8,1.6.18,0,.37-.05.55-.17l21.52-14.16c.82-.54,1.77-.82,2.75-.82h55.59c2.76,0,5,2.24,5,5v111.69c0,1.8-.97,3.47-2.54,4.35l-30.68,17.34,23.96,15.25c.82.52,1.75.78,2.69.78.84,0,1.68-.21,2.44-.64l29.73-16.61c1.58-.88,2.56-2.55,2.56-4.36V17.38c0-1.78-.95-3.43-2.49-4.32l-18.74-10.88c-.76-.44-1.63-.68-2.51-.68h0Zm-37.64,29.37l-27.91,16.61v119.64c0,1.22-.45,2.41-1.26,3.32l-23.43,26.36c-.62.7-.04,1.67.74,1.67.17,0,.34-.04.51-.15l51.36-30.04V30.87h0Z"/>
  </g>
</svg>